<?xml version="1.0" standalone="no"?>
<!DOCTYPE svg PUBLIC "-//W3C//DTD SVG 20010904//EN"
 "http://www.w3.org/TR/2001/REC-SVG-20010904/DTD/svg10.dtd">
<svg version="1.0" xmlns="http://www.w3.org/2000/svg"
 width="130.000000pt" height="69.000000pt" viewBox="0 0 130.000000 69.000000"
 preserveAspectRatio="xMidYMid meet">

<g transform="translate(0.000000,69.000000) scale(0.100000,-0.100000)"
fill="#000000" stroke="none">
<path d="M125 645 c-16 -9 -38 -25 -47 -35 -16 -19 -14 -26 36 -138 64 -140
124 -262 131 -262 3 0 22 11 43 24 46 31 126 45 189 35 69 -11 83 -9 43 6 -48
18 -182 19 -225 0 l-35 -14 -81 161 c-44 88 -78 166 -75 174 9 24 56 47 114
54 l57 7 -60 2 c-36 0 -72 -5 -90 -14z"/>
<path d="M1088 650 c53 -8 99 -31 108 -54 3 -8 -31 -86 -75 -174 l-80 -160
-38 14 c-47 16 -168 18 -214 3 -49 -17 -60 -30 -14 -18 21 6 73 9 115 7 63 -2
84 -8 118 -30 23 -16 44 -28 47 -28 7 0 67 122 130 262 49 109 52 118 38 138
-22 32 -74 50 -135 49 l-53 -1 53 -8z"/>
<path d="M60 396 c0 -4 32 -70 71 -146 l70 -140 49 42 c68 59 118 77 220 78
75 2 81 3 50 12 -84 24 -222 -8 -283 -67 -16 -15 -30 -25 -31 -24 -1 2 -33 58
-71 124 -71 127 -75 132 -75 121z"/>
<path d="M1165 277 c-37 -67 -69 -124 -71 -126 -2 -2 -15 8 -30 22 -60 60
-198 94 -284 69 -31 -9 -26 -10 46 -11 102 -1 157 -20 221 -76 l51 -45 72 141
c39 78 70 143 68 145 -2 2 -35 -52 -73 -119z"/>
<path d="M104 173 c24 -54 51 -115 61 -135 l18 -37 47 43 c63 59 120 94 215
133 85 35 90 42 14 19 -84 -26 -158 -66 -214 -118 -31 -28 -58 -49 -60 -46 -3
2 -30 57 -60 121 -31 64 -58 117 -60 117 -2 0 16 -44 39 -97z"/>
<path d="M1216 233 c-6 -14 -5 -15 5 -6 7 7 10 15 7 18 -3 3 -9 -2 -12 -12z"/>
<path d="M855 177 c96 -39 152 -74 215 -133 l47 -44 47 101 c25 56 45 103 43
105 -2 2 -23 -37 -47 -86 -24 -50 -46 -90 -47 -90 -2 0 -14 10 -26 21 -60 58
-143 109 -215 133 -106 35 -113 32 -17 -7z"/>
<path d="M389 108 c-24 -17 -52 -42 -62 -55 -20 -25 -43 -30 -50 -10 -2 6 -7
9 -11 5 -9 -8 12 -50 23 -46 11 4 155 138 149 138 -3 0 -25 -14 -49 -32z"/>
<path d="M929 74 c41 -38 79 -69 84 -69 15 0 33 33 23 42 -5 4 -11 2 -13 -4
-7 -21 -23 -15 -64 24 -21 20 -53 46 -71 57 -19 11 0 -11 41 -50z"/>
</g>
</svg>
